<svg xmlns="http://www.w3.org/2000/svg" viewBox="0 0 256 64">
  <polyline points="0,32 24,18 48,40 72,14 96,36 120,20 144,42 168,16 192,38 216,22 240,34 256,30" fill="none" stroke="#F0B90B" stroke-width="16" stroke-linecap="round" stroke-linejoin="round" opacity="0.32"/>
  <polyline points="0,32 24,18 48,40 72,14 96,36 120,20 144,42 168,16 192,38 216,22 240,34 256,30" fill="none" stroke="#F0B90B" stroke-width="7" stroke-linecap="round" stroke-linejoin="round"/>
  <polyline points="0,32 24,18 48,40 72,14 96,36 120,20 144,42 168,16 192,38 216,22 240,34 256,30" fill="none" stroke="#ffffff" stroke-width="3" stroke-linecap="round" stroke-linejoin="round"/>
</svg>
